<?xml version="1.0" encoding="UTF-8"?>
<svg width="559pt" version="1.1" xmlns="http://www.w3.org/2000/svg" height="245pt" viewBox="0 0 559 245" xmlns:xlink="http://www.w3.org/1999/xlink">
 <defs>
  <clipPath id="Clip0">
   <path d="M0 0 L0 244.157 L558.57 244.157 L558.57 0 L0 0 Z" transform="translate(0, 0.842773)"/>
  </clipPath>
 </defs>
 <g id="Hintergrund">
  <g id="Gruppe1" clip-path="url(#Clip0)">
   <path style="fill:#0b4d96; fill-rule:nonzero;stroke:none;" d="M20.541 24.181 L14.301 28.406 C7.086 33.281 5.2 36.597 5.2 42.252 L5.2 43.617 L27.107 43.617 C27.821 43.617 28.406 44.007 28.406 44.722 L28.406 47.582 C28.406 48.297 27.821 48.752 27.107 48.752 L1.3 48.752 C0.585 48.752 0 48.231 0 47.517 L0 42.252 C0 35.491 2.861 29.901 9.946 25.156 L16.511 20.736 C21.906 17.096 23.206 15.536 23.206 11.636 C23.206 6.955 20.476 4.94 13.456 4.94 C10.075 4.94 5.591 5.395 1.95 5.915 C1.885 5.915 1.821 5.915 1.69 5.915 C1.04 5.915 0.65 5.46 0.65 4.745 L0.65 2.47 C0.65 1.82 1.235 1.431 1.885 1.3 C5.2 0.455 9.62 0 13.456 0 C23.988 0 28.991 3.641 28.991 11.636 C28.991 16.77 26.586 20.086 20.541 24.181 Z" transform="translate(263.2, 143.304)"/>
   <path style="fill:#0b4d96; fill-rule:nonzero;stroke:none;" d="M26.001 20.216 C26.001 9.23 22.1 5.005 15.99 5.005 C9.881 5.005 5.98 9.23 5.98 20.216 L5.98 28.991 C5.98 39.977 9.881 44.202 15.99 44.202 C22.1 44.202 26.001 39.977 26.001 28.991 L26.001 20.216 Z M15.99 49.207 C6.175 49.207 0 43.356 0 28.991 L0 20.216 C0 5.851 6.175 0 15.99 0 C25.806 0 31.916 5.851 31.916 20.216 L31.916 28.991 C31.916 43.356 25.806 49.207 15.99 49.207 Z" transform="translate(300.38, 143.304)"/>
   <path style="fill:#0b4d96; fill-rule:nonzero;stroke:none;" d="M20.541 24.181 L14.301 28.406 C7.085 33.281 5.2 36.597 5.2 42.252 L5.2 43.617 L27.107 43.617 C27.821 43.617 28.406 44.007 28.406 44.722 L28.406 47.582 C28.406 48.297 27.821 48.752 27.107 48.752 L1.3 48.752 C0.585 48.752 0 48.231 0 47.517 L0 42.252 C0 35.491 2.861 29.901 9.946 25.156 L16.511 20.736 C21.906 17.096 23.206 15.536 23.206 11.636 C23.206 6.955 20.476 4.94 13.455 4.94 C10.075 4.94 5.59 5.395 1.95 5.915 C1.885 5.915 1.821 5.915 1.691 5.915 C1.04 5.915 0.651 5.46 0.651 4.745 L0.651 2.47 C0.651 1.82 1.236 1.431 1.885 1.3 C5.2 0.455 9.62 0 13.455 0 C23.988 0 28.991 3.641 28.991 11.636 C28.991 16.77 26.586 20.086 20.541 24.181 Z" transform="translate(341.2, 143.304)"/>
   <path style="fill:#0b4d96; fill-rule:nonzero;stroke:none;" d="M26.001 20.216 C26.001 9.23 22.101 5.005 15.991 5.005 C9.881 5.005 5.981 9.23 5.981 20.216 L5.981 28.991 C5.981 39.977 9.881 44.202 15.991 44.202 C22.101 44.202 26.001 39.977 26.001 28.991 L26.001 20.216 Z M15.991 49.207 C6.176 49.207 0 43.356 0 28.991 L0 20.216 C0 5.851 6.176 0 15.991 0 C25.806 0 31.916 5.851 31.916 20.216 L31.916 28.991 C31.916 43.356 25.806 49.207 15.991 49.207 Z" transform="translate(377.73, 143.304)"/>
   <path style="fill:#9ddbf4; fill-rule:evenodd;stroke:none;" d="M102.662 45.3662 C102.662 48.5059 99.8525 50.5947 96.335 50.0156 L9.3457 35.71 C4.22559 34.8643 0 31.0186 0 27.1445 L0 6.05957 C0 2.18164 4.22559 0 9.3457 1.17969 L96.335 21.1484 C99.8525 21.9551 102.662 25.1553 102.662 28.29 L102.662 45.3662 Z" transform="translate(0, -0.0166016)"/>
   <path style="fill:#00b1e6; fill-rule:evenodd;stroke:none;" d="M65.406 32.9776 C65.406 35.543 63.538 37.3164 61.207 36.9287 L5.73 27.8047 C2.588 27.2891 0 24.4053 0 21.3731 L0 4.8965 C0 1.8623 2.588 0 5.73 0.7188 L61.207 13.4551 C63.538 13.9932 65.406 16.4991 65.406 19.0577 L65.406 32.9776 Z" transform="translate(117.971, 26.6943)"/>
   <path style="fill:#9ddbf4; fill-rule:evenodd;stroke:none;" d="M45.302 25.67 C45.302 27.8291 43.977 29.3662 42.324 29.0918 L3.869 22.7666 C1.741 22.418 0 20.1133 0 17.6299 L0 4.1065 C0 1.6211 1.741 0 3.869 0.4873 L42.324 9.3164 C43.977 9.6973 45.302 11.7569 45.302 13.918 L45.302 25.67 Z" transform="translate(193.616, 43.8652)"/>
   <path style="fill:#9ddbf4; fill-rule:evenodd;stroke:none;" d="M102.662 35.6768 C102.662 38.8086 99.8525 41.1758 96.335 40.9473 L9.3457 35.2051 C4.22559 34.8662 0 31.4394 0 27.5664 L0 6.4883 C0 2.5967 4.22559 0 9.3457 0.6719 L96.335 12.0742 C99.8525 12.5322 102.662 15.456 102.662 18.6055 L102.662 35.6768 Z" transform="translate(0, 52.7295)"/>
   <path style="fill:#00b1e6; fill-rule:evenodd;stroke:none;" d="M65.406 26.7978 C65.406 29.3584 63.538 31.3135 61.207 31.1621 L5.73 27.5 C2.588 27.2939 0 24.6592 0 21.6387 L0 5.167 C0 2.123 2.588 0 5.73 0.416 L61.207 7.6904 C63.538 7.9922 65.406 10.3125 65.406 12.8867 L65.406 26.7978 Z" transform="translate(117.971, 67.9756)"/>
   <path style="fill:#00b1e6; fill-rule:evenodd;stroke:none;" d="M45.302 21.3857 C45.302 23.5427 43.977 25.2097 42.324 25.1027 L3.869 22.5637 C1.741 22.4247 0 20.288 0 17.8066 L0 4.291 C0 1.7958 1.741 0 3.869 0.2792 L42.324 5.3203 C43.977 5.5341 45.302 7.4677 45.302 9.6367 L45.302 21.3857 Z" transform="translate(193.616, 77.7813)"/>
   <path style="fill:#00b1e6; fill-rule:evenodd;stroke:none;" d="M102.662 25.972 C102.662 29.111 99.8525 31.753 96.335 31.869 L9.3457 34.702 C4.22559 34.865 0 31.853 0 27.981 L0 6.898 C0 3.007 4.22559 0 9.3457 0.167 L96.335 2.999 C99.8525 3.111 102.662 5.751 102.662 8.899 L102.662 25.972 Z" transform="translate(0, 105.489)"/>
   <path style="fill:#005ca8; fill-rule:evenodd;stroke:none;" d="M65.406 20.615 C65.406 23.169 63.538 25.312 61.207 25.384 L5.73 27.192 C2.588 27.297 0 24.917 0 21.891 L0 5.415 C0 2.375 2.588 0 5.73 0.105 L61.207 1.909 C63.538 1.988 65.406 4.125 65.406 6.691 L65.406 20.615 Z" transform="translate(117.971, 109.273)"/>
   <path style="fill:#00b1e6; fill-rule:evenodd;stroke:none;" d="M45.302 17.091 C45.302 19.249 43.977 21.05 42.324 21.1 L3.869 22.355 C1.741 22.422 0 20.46 0 17.975 L0 4.461 C0 1.963 1.741 0 3.869 0.07 L42.324 1.326 C43.977 1.372 45.302 3.171 45.302 5.342 L45.302 17.091 Z" transform="translate(193.616, 111.709)"/>
   <path style="fill:#00b1e6; fill-rule:evenodd;stroke:none;" d="M102.662 22.589 C102.662 25.722 99.8525 28.639 96.335 29.104 L9.3457 40.5 C4.22559 41.176 0 38.578 0 34.706 L0 13.629 C0 9.736 4.22559 6.309 9.3457 5.973 L96.335 0.233 C99.8525 0 102.662 2.367 102.662 5.519 L102.662 22.589 Z" transform="translate(0, 151.928)"/>
   <path style="fill:#005ca8; fill-rule:evenodd;stroke:none;" d="M65.406 18.445 C65.406 21.002 63.538 23.322 61.207 23.631 L5.73 30.9 C2.588 31.311 0 29.192 0 26.165 L0 9.695 C0 6.654 2.588 4.024 5.73 3.817 L61.207 0.156 C63.538 0 65.406 1.961 65.406 4.527 L65.406 18.445 Z" transform="translate(117.971, 146.541)"/>
   <path style="fill:#005ca8; fill-rule:evenodd;stroke:none;" d="M45.302 15.582 C45.302 17.74 43.977 19.67 42.324 19.888 L3.869 24.928 C1.741 25.204 0 23.412 0 20.929 L0 7.414 C0 4.921 1.741 2.782 3.869 2.642 L42.324 0.105 C43.977 0 45.302 1.667 45.302 3.833 L45.302 15.582 Z" transform="translate(193.616, 142.845)"/>
   <path style="fill:#005ca8; fill-rule:evenodd;stroke:none;" d="M102.662 22.303 C102.662 25.443 99.8525 28.634 96.335 29.443 L9.3457 49.413 C4.22559 50.595 0 48.417 0 44.535 L0 23.457 C0 19.57 4.22559 15.731 9.3457 14.887 L96.335 0.578 C99.8525 0 102.662 2.085 102.662 5.235 L102.662 22.303 Z" transform="translate(0, 195.265)"/>
   <path style="fill:#005ca8; fill-rule:evenodd;stroke:none;" d="M65.406 18.255 C65.406 20.816 63.538 23.319 61.207 23.852 L5.73 36.593 C2.588 37.314 0 35.45 0 32.424 L0 15.952 C0 12.906 2.588 10.027 5.73 9.51 L61.207 0.385 C63.538 0 65.406 1.767 65.406 4.338 L65.406 18.255 Z" transform="translate(117.971, 181.833)"/>
   <path style="fill:#005ca8; fill-rule:evenodd;stroke:none;" d="M45.302 15.448 C45.302 17.609 43.977 19.668 42.324 20.044 L3.869 28.874 C1.741 29.362 0 27.747 0 25.257 L0 11.742 C0 9.246 1.741 6.945 3.869 6.594 L42.324 0.272 C43.977 0 45.302 1.529 45.302 3.7 L45.302 15.448 Z" transform="translate(193.616, 172.612)"/>
   <path style="fill:#0b4d96; fill-rule:nonzero;stroke:none;" d="M8.463 67.2387 L8.463 1.7676 C8.463 0.7441 7.719 0 6.789 0 L1.674 0 C0.651 0 0 0.8369 0 1.7676 L0 67.2387 C0 68.2617 0.744 69.0987 1.674 69.0987 L6.789 69.0987 C7.812 69.0987 8.463 68.1687 8.463 67.2387 Z" transform="translate(263.109, 56.1553)"/>
   <path style="fill:#0b4d96; fill-rule:nonzero;stroke:none;" d="M48.36 5.7666 L48.36 1.6738 C48.36 0.6513 47.616 0 46.593 0 L1.86 0 C0.837 0 0 0.7441 0 1.6738 L0 5.7666 C0 6.789 0.837 7.2539 1.86 7.2539 L19.995 7.2539 L19.995 67.2387 C19.995 68.2617 20.739 69.0987 21.669 69.0987 L26.784 69.0987 C27.806 69.0987 28.458 68.1687 28.458 67.2387 L28.458 7.2539 L46.593 7.2539 C47.616 7.2539 48.36 6.6963 48.36 5.7666 Z" transform="translate(283.011, 56.1553)"/>
   <path style="fill:#0b4d96; fill-rule:nonzero;stroke:none;" d="M22.041 5.3007 L22.041 1.6738 C22.041 0.6513 21.297 0 20.274 0 L1.766 0 C0.744 0 0 0.7441 0 1.6738 L0 5.3007 C0 6.3235 0.744 6.8825 1.766 6.8825 L20.274 6.8825 C21.297 6.8825 22.041 6.2315 22.041 5.3007 Z" transform="translate(339.09, 94.5645)"/>
   <path style="fill:#0b4d96; fill-rule:nonzero;stroke:none;" d="M48.36 5.7666 L48.36 1.6738 C48.36 0.6513 47.616 0 46.592 0 L1.86 0 C0.838 0 0 0.7441 0 1.6738 L0 5.7666 C0 6.789 0.838 7.2539 1.86 7.2539 L19.995 7.2539 L19.995 67.2387 C19.995 68.2617 20.739 69.0987 21.669 69.0987 L26.784 69.0987 C27.807 69.0987 28.458 68.1687 28.458 67.2387 L28.458 7.2539 L46.592 7.2539 C47.616 7.2539 48.36 6.6963 48.36 5.7666 Z" transform="translate(368.85, 56.1553)"/>
   <path style="fill:#0b4d96; fill-rule:nonzero;stroke:none;" d="M29.295 42.0359 C24.831 44.4539 21.019 45.7559 16.741 45.7559 C11.347 45.7559 8.185 43.9899 8.185 37.2929 L8.185 36.1779 C8.185 29.5749 11.161 27.0639 22.415 27.0639 L29.295 27.0639 L29.295 42.0359 Z M37.48 49.9409 L37.48 17.4844 C37.48 6.5108 32.272 0 19.345 0 C13.021 0 8.743 0.5586 4.93 1.209 C3.627 1.3955 2.977 1.9532 2.977 2.9766 L2.977 6.2315 C2.977 7.4405 3.814 7.7198 4.651 7.7198 C4.836 7.7198 4.93 7.7198 5.116 7.7198 C8.835 7.3477 13.3 6.9756 19.345 6.9756 C26.599 6.9756 29.295 9.6719 29.295 17.4844 L29.295 21.2041 L22.415 21.2041 C5.86 21.2041 0 26.2266 0 36.2699 L0 37.3869 C0 49.0119 7.254 52.4529 15.16 52.4529 C20.368 52.4529 25.018 50.4989 29.482 47.8949 L29.482 49.9409 C29.482 50.9639 30.319 51.8009 31.342 51.8009 L35.62 51.8009 C36.643 51.8009 37.48 50.9639 37.48 49.9409 Z" transform="translate(417.023, 73.4531)"/>
   <path style="fill:#0b4d96; fill-rule:nonzero;stroke:none;" d="M34.41 55.3355 C34.41 60.4505 31.992 63.4265 21.389 63.4265 C11.067 63.4265 7.998 60.1715 7.998 54.9635 L7.998 54.1265 C7.998 49.2895 9.858 46.9655 12.554 44.6395 L23.064 47.3375 C31.434 49.4755 34.41 50.9645 34.41 54.5915 L34.41 55.3355 Z M33.666 17.2051 C33.666 22.7851 31.155 26.6915 21.111 26.6915 C10.416 26.6915 8.555 21.2969 8.555 17.2051 L8.555 16.4609 C8.555 11.2529 10.695 6.5098 21.111 6.5098 C31.155 6.5098 33.666 10.8809 33.666 16.4609 L33.666 17.2051 Z M43.617 4.4639 L43.617 2.0459 C43.617 0.9297 42.593 0 41.478 0 L21.111 0 C5.115 0 0.464 8.1836 0.464 16.4609 L0.464 17.2051 C0.464 21.9482 1.86 25.2959 4.743 27.9925 C2.139 29.4815 0.929 32.1775 0.929 34.6895 L0.929 34.7815 C0.929 37.6645 2.232 40.7345 5.208 42.0355 L5.859 42.3155 C2.79 44.6395 0 48.9185 0 54.1265 L0 54.9635 C0 64.0775 6.696 69.7505 21.389 69.7505 C36.642 69.7505 42.593 64.2625 42.593 55.3355 L42.593 54.5915 C42.593 45.8485 33.852 43.2445 24.738 40.9205 L10.88 37.3855 C8.742 36.8275 7.998 35.9905 7.998 34.4095 C7.998 33.0145 8.742 31.9915 10.323 31.2475 C13.02 32.3635 16.182 33.1085 21.111 33.1085 C35.433 33.1085 41.756 27.4345 41.756 17.2051 L41.756 16.4609 C41.756 11.4394 40.269 8.6494 38.594 6.8818 L41.943 6.2314 C42.965 6.0449 43.617 5.6728 43.617 4.4639 Z" transform="translate(465.849, 74.1045)"/>
   <path style="fill:#0b4d96; fill-rule:nonzero;stroke:none;" d="M32.829 22.5996 L8.183 22.5996 L8.183 21.7627 C8.183 11.7188 12.647 7.1612 20.645 7.1612 C28.83 7.1612 32.829 11.253 32.829 21.7627 L32.829 22.5996 Z M41.106 26.7839 L41.106 21.7627 C41.106 8.5567 34.224 0 20.645 0 C7.347 0 0 8.4629 0 21.7627 L0 30.1329 C0 47.4309 10.416 52.4529 21.111 52.4529 C27.342 52.4529 32.457 51.8949 37.758 50.8709 C39.246 50.5919 39.618 49.9409 39.618 48.7319 L39.618 45.5709 C39.618 44.6399 38.874 44.2679 38.13 44.2679 C37.944 44.2679 37.85 44.2679 37.665 44.2679 C33.387 44.9189 26.505 45.2909 21.111 45.2909 C12.555 45.2909 8.183 41.1999 8.183 30.1329 L8.183 28.8299 L39.339 28.8299 C40.455 28.8299 41.106 27.9939 41.106 26.7839 Z" transform="translate(517.464, 73.4531)"/>
  </g>
 </g>
</svg>
